<svg width="26" height="25" viewBox="0 0 26 25" fill="none" xmlns="http://www.w3.org/2000/svg">
<path d="M13.1423 10.0384C14.0917 9.06836 15.3278 8.43373 16.7658 8.43373C18.276 8.43373 19.7243 9.03364 20.7922 10.1015C21.86 11.1693 22.4599 12.6177 22.4599 14.1278V21.8925H20.3893V14.1278C20.3893 13.1668 20.0076 12.2452 19.328 11.5656C18.6485 10.8861 17.7268 10.5043 16.7658 10.5043C15.8048 10.5043 14.8831 10.8861 14.2036 11.5656C13.524 12.2452 13.1423 13.1668 13.1423 14.1278V21.8925H11.0717V8.95137H13.1423V10.0384ZM5.89523 6.88078C5.48336 6.88078 5.08836 6.71717 4.79713 6.42594C4.5059 6.13471 4.34229 5.73971 4.34229 5.32784C4.34229 4.91598 4.5059 4.52098 4.79713 4.22975C5.08836 3.93852 5.48336 3.7749 5.89523 3.7749C6.30709 3.7749 6.70209 3.93852 6.99332 4.22975C7.28455 4.52098 7.44817 4.91598 7.44817 5.32784C7.44817 5.73971 7.28455 6.13471 6.99332 6.42594C6.70209 6.71717 6.30709 6.88078 5.89523 6.88078ZM4.85993 8.95137H6.93052V21.8925H4.85993V8.95137Z" fill="#E9501D"/>
</svg>
