<svg width="21" height="21" viewBox="0 0 21 21" fill="none" xmlns="http://www.w3.org/2000/svg">
<path d="M10.4235 0.480957C8.42704 0.480957 6.47545 1.07297 4.81548 2.18212C3.15551 3.29128 1.86172 4.86776 1.09772 6.71222C0.333719 8.55668 0.133822 10.5863 0.523306 12.5443C0.91279 14.5024 1.87416 16.301 3.28585 17.7127C4.69754 19.1244 6.49614 20.0858 8.4542 20.4752C10.4123 20.8647 12.4419 20.6648 14.2863 19.9008C16.1308 19.1368 17.7073 17.843 18.8164 16.1831C19.9256 14.5231 20.5176 12.5715 20.5176 10.5751C20.5148 7.89882 19.4504 5.33298 17.558 3.44058C15.6656 1.54817 13.0997 0.483783 10.4235 0.480957ZM11.1999 19.0803V12.9045H13.5294C13.7353 12.9045 13.9328 12.8227 14.0784 12.6771C14.224 12.5314 14.3058 12.3339 14.3058 12.128C14.3058 11.9221 14.224 11.7246 14.0784 11.579C13.9328 11.4334 13.7353 11.3515 13.5294 11.3515H11.1999V9.02213C11.1999 8.61027 11.3636 8.21527 11.6548 7.92404C11.946 7.63281 12.341 7.46919 12.7529 7.46919H14.3058C14.5118 7.46919 14.7093 7.38739 14.8549 7.24177C15.0005 7.09615 15.0823 6.89865 15.0823 6.69272C15.0823 6.48679 15.0005 6.28929 14.8549 6.14367C14.7093 5.99806 14.5118 5.91625 14.3058 5.91625H12.7529C11.9291 5.91625 11.1392 6.24348 10.5567 6.82594C9.97422 7.40841 9.647 8.1984 9.647 9.02213V11.3515H7.31759C7.11165 11.3515 6.91415 11.4334 6.76854 11.579C6.62292 11.7246 6.54111 11.9221 6.54111 12.128C6.54111 12.3339 6.62292 12.5314 6.76854 12.6771C6.91415 12.8227 7.11165 12.9045 7.31759 12.9045H9.647V19.0803C7.45812 18.8805 5.43053 17.8446 3.98598 16.1879C2.54143 14.5313 1.79113 12.3816 1.89114 10.1859C1.99115 7.99019 2.93378 5.91756 4.52295 4.39913C6.11212 2.8807 8.22549 2.03335 10.4235 2.03335C12.6214 2.03335 14.7348 2.8807 16.324 4.39913C17.9132 5.91756 18.8558 7.99019 18.9558 10.1859C19.0558 12.3816 18.3055 14.5313 16.861 16.1879C15.4164 17.8446 13.3888 18.8805 11.1999 19.0803Z" fill="white"/>
</svg>
